<svg xmlns="http://www.w3.org/2000/svg" viewBox="0 0 200 200" id="Business"><path fill="#595bd4" d="M124.872 171.401v-14.57a3.17 3.17 0 0 0-.932-2.247 3.154 3.154 0 0 0-2.244-.93H78.303a3.174 3.174 0 0 0-3.176 3.177v14.57l-17.026 9.406a1.12 1.12 0 0 0-.417.412 1.11 1.11 0 0 0-.156.565v2.064c0 .286.108.572.327.788.216.22.5.327.787.327h82.715c.286 0 .57-.107.786-.327.22-.216.327-.502.327-.788v-2.064c0-.193-.05-.391-.156-.565a1.106 1.106 0 0 0-.42-.412l-17.022-9.406zm72.917-154.157a7.502 7.502 0 0 0-5.329-2.209H7.541c-1.93 0-3.859.735-5.33 2.209A7.5 7.5 0 0 0 0 22.573v119.702c0 1.93.734 3.86 2.211 5.333a7.506 7.506 0 0 0 5.33 2.209H192.46a7.51 7.51 0 0 0 5.329-2.209 7.512 7.512 0 0 0 2.211-5.333V22.573a7.504 7.504 0 0 0-2.211-5.329zM100 146.622c-1.841 0-3.334-1.491-3.334-3.332s1.493-3.336 3.334-3.336a3.334 3.334 0 0 1 0 6.668zm86.958-9.848H13.043V28.077h173.915v108.697z" class="color5e889e svgShape"></path><path fill="#595bd4" d="M41.008 126.543a1.567 1.567 0 0 0-1.569 1.569v1.19h16.797v-1.19a1.573 1.573 0 0 0-1.567-1.569H41.008zm20.505-19.395a1.563 1.563 0 0 0-1.564 1.569v20.585h16.792v-20.585a1.565 1.565 0 0 0-1.568-1.569h-13.66zm20.509-7.974c-.402 0-.802.15-1.11.456a1.57 1.57 0 0 0-.458 1.112v28.562H97.25v-28.562c0-.402-.153-.803-.459-1.112a1.555 1.555 0 0 0-1.108-.456H82.022zm20.51 3.3a1.54 1.54 0 0 0-1.108.457 1.559 1.559 0 0 0-.461 1.112v25.26h16.797v-25.26c0-.405-.15-.804-.463-1.112a1.534 1.534 0 0 0-1.104-.457h-13.661zm20.507-12.817a1.572 1.572 0 0 0-1.573 1.568v38.079h16.803v-38.08c0-.401-.156-.801-.465-1.11a1.559 1.559 0 0 0-1.106-.458h-13.659zm20.507-15.998a1.564 1.564 0 0 0-1.567 1.567v54.076h16.795V75.227c0-.4-.15-.804-.46-1.108a1.557 1.557 0 0 0-1.107-.459h-13.661z" class="color5e889e svgShape"></path><path fill="#595bd4" d="M171.387 43.723a1.046 1.046 0 0 0-.075-1.173 1.05 1.05 0 0 0-1.119-.359l-16.78 4.917a1.046 1.046 0 0 0-.533 1.645l2.036 2.611-50.824 39.645-28.166-11.935-46.971 44.598c-.29.279-.476.662-.489 1.097-.005.432.154.83.434 1.124l2.161 2.271c.277.29.664.48 1.095.491.433.008.831-.156 1.121-.436l43.985-41.765 27.78 11.767 53.732-41.914 2.036 2.607a1.043 1.043 0 0 0 1.722-.115l8.855-15.076z" class="color5e889e svgShape"></path></svg>