<svg xmlns="http://www.w3.org/2000/svg" fill-rule="evenodd" stroke-linejoin="round" stroke-miterlimit="2" clip-rule="evenodd" viewBox="0 0 100 101" id="design"><path d="M91.926,79.04c0.148,0.178 0.272,0.378 0.366,0.596l6.377,14.688c0.625,1.355 0.349,2.955 -0.696,4.02c-1.044,1.064 -2.636,1.372 -4.003,0.774l-14.98,-6.107c-0.237,-0.097 -0.455,-0.229 -0.647,-0.388l13.583,-13.583Zm-68.902,-14.053l12.643,11.559l-0.745,10.194c-0.224,3.06 -2.379,5.631 -5.348,6.389c-0.905,0.256 -17.975,5.061 -22.026,5.483c-0.722,0.076 -1.509,-0.069 -2.256,-0.397l6.24,-6.377c0.752,-0.769 0.739,-2.005 -0.031,-2.758c-0.769,-0.752 -2.005,-0.739 -2.757,0.031l-6.271,6.409c-0.404,-0.815 -0.589,-1.691 -0.506,-2.488c0.422,-4.052 5.228,-21.12 5.483,-22.026c0.758,-2.97 3.331,-5.125 6.39,-5.349l9.184,-0.67Zm6.55,28.142l0.037,-0.01l-0.078,0.02c0.014,-0.003 0.028,-0.006 0.041,-0.01Zm45.338,-2.591c-0.099,-0.073 -0.194,-0.155 -0.284,-0.245l-21.211,-21.211c5.002,-4.011 10.369,-8.754 15.807,-14.044l20.33,20.33c0.089,0.089 0.17,0.184 0.244,0.284l-14.886,14.886Zm-49.298,-28.467c5.071,-8.304 14.016,-19.323 25.161,-30.466c14.15,-14.151 28.12,-24.745 36.626,-28.436c2.557,-1.11 4.711,-1.62 6.326,-1.587c1.651,0.034 2.906,0.583 3.797,1.474c0.891,0.891 1.441,2.146 1.474,3.797c0.034,1.615 -0.476,3.768 -1.586,6.326c-3.692,8.506 -14.286,22.476 -28.436,36.626c-10.826,10.826 -21.533,19.577 -29.745,24.715l-13.617,-12.449Zm-18.164,8.935c-0.003,0.014 -0.007,0.028 -0.01,0.041l0.021,-0.078l-0.011,0.037Zm24.047,-23.842l-29.772,-29.772c-0.967,-0.967 -0.967,-2.536 0,-3.503l11.424,-11.423c0.967,-0.968 2.535,-0.968 3.503,-0l28.89,28.89c-5.289,5.438 -10.032,10.805 -14.045,15.808Z" fill="#595bd4" class="color000000 svgShape"></path></svg>